<?xml version="1.0" encoding="UTF-8"?>
<svg id="Layer_1" xmlns="http://www.w3.org/2000/svg" viewBox="0 0 152.6 188.24">
  <defs>
    <style>
      .cls-1 {
        fill: #fff;
      }

      .cls-2 {
        fill: #1ba6df;
      }
    </style>
  </defs>
  <g>
    <path class="cls-2" d="M33.88,6.52h84.84s26.22,80.69,26.22,80.69l-68.64,49.87L7.66,87.21,33.88,6.52M29.15,0l-1.46,4.5L1.46,85.2l-1.46,4.5,3.83,2.78,68.64,49.87,3.83,2.78,3.83-2.78,68.64-49.87,3.83-2.78-1.46-4.5L124.92,4.51,123.46,0H33.88s-4.73,0-4.73,0h0Z"/>
    <path class="cls-1" d="M118.37,76.01l-9.18-2.96,1.62-.82,4.6-2.36-.72-1.39-1.46-2.84-2.34,1.2-5.89,3.02-2.22,1.14-6.86-2.21,15.8-15.4-21.8-3.16,1.81-2.52,2.39-3.33,11.58-1.9-.77-4.69-6.89,1.13,5.62-7.83-3.87-2.77-5.62,7.83-.29-1.79-.84-5.1-1.54.26-3.15.52.43,2.59,1.07,6.53.4,2.45-4.21,5.87-3.28-6.64-6.36-12.89-.15-.3-9.8,19.86-4.23-5.9.4-2.45,1.07-6.53.42-2.59-3.15-.52-1.55-.26-.84,5.1-.29,1.79-5.62-7.83-3.87,2.77,5.62,7.83-6.89-1.13-.77,4.69,11.58,1.9,2.39,3.33,1.81,2.53-21.76,3.16,15.86,15.46-6.87,2.21-2.21-1.14-5.89-3.02-2.34-1.2-1.45,2.84-.72,1.39,4.6,2.36,1.61.83-9.17,2.96,1.46,4.53,9.17-2.96-3.18,6.22,4.23,2.17,5.35-10.45,3.9-1.26,2.91-.94-3.71,21.67,19.65-10.33v7.23l-8.3,8.3,3.36,3.37,4.94-4.94v9.64h4.76v-9.64l1.28,1.28,3.65,3.65,1.11-1.11,2.26-2.26-1.86-1.86-4.68-4.68-1.76-1.76v-7.11l3.67,1.93,15.74,8.27-3.73-21.76,2.98.96,3.9,1.26,5.35,10.45,4.23-2.17-3.18-6.22,9.18,2.96,1.46-4.53ZM82.85,81.32l-4.25-2.23-.6-.32-1.74-.91-2.34,1.23-12.9,6.78,2.46-14.36.45-2.6-1.9-1.85-10.43-10.17,14.42-2.09,2.61-.38,1.17-2.37,6.45-13.07,1.57,3.19,4.88,9.88.74,1.49.43.88,2.61.38,14.42,2.09-10.43,10.17-1.89,1.85.45,2.6,2.46,14.36-8.65-4.55Z"/>
  </g>
  <g>
    <path id="_x26_" class="cls-1" d="M62.13,172.99c-2.53,1.37-4.12,3.67-4.27,6.28,0,.13-.03.26-.03.4,0,1.17.28,2.26.8,3.23,1.55,2.88,5.23,4.71,9.99,4.71.66,0,1.51-.04,2.28-.11l.94-.09v-12.62h1.69v-3.13h-1.69v-1.66h-3.13v1.66h-1.01c-.63,0-1.2-.08-1.73-.21l-.15-.15-.09.09c-1.61-.47-2.63-1.56-2.85-3.04-.03-.19-.06-.38-.06-.59,0-2.76,2.49-4,4.95-4,.32,0,.71.03,1.07.07l1.06.1.2-3.13-1-.1c-.42-.04-.87-.07-1.33-.07-3.86,0-6.73,1.94-7.7,4.91-.22.69-.38,1.42-.38,2.22s.15,1.49.38,2.18c.39,1.19,1.06,2.25,2.05,3.05ZM65.26,175.11c.45-.12.92-.2,1.42-.25.34-.03.68-.07,1.04-.07h1.01v9.69s-.06,0-.09,0c-3.5,0-6.98-1.27-7.55-4.03-.05-.25-.12-.5-.12-.78,0-2.15,1.73-3.87,4.29-4.56Z"/>
    <g id="Ski">
      <polygon class="cls-1" points="48.4 173.81 48.4 171.05 48.4 162.26 45.28 162.26 45.28 170.58 45.28 173.32 45.28 187.38 48.4 187.38 48.4 173.81"/>
      <path class="cls-1" d="M9.58,184.57c-3.12,0-5.26-1.21-6.35-3.6l-.38-.83-2.85,1.32.36.81c1.59,3.59,4.69,5.41,9.22,5.41,6.04,0,9.95-3.14,9.95-7.99s-5.17-5.75-8.95-6.32l-.65-.1c-.42-.06-.82-.13-1.21-.19-2.53-.42-4.42-.93-5.17-2-.23-.32-.37-.69-.37-1.13,0-4.53,5.23-4.88,6.83-4.88,3.05,0,5.45,1.37,6.43,3.67l.34.8.02.05.15-.07,2.64-1.18-.29-.8c-1.51-4.12-5.79-5.59-9.29-5.59-4.95,0-9.95,2.47-9.95,7.99,0,.64.1,1.2.26,1.71.34,1.04.99,1.83,1.82,2.43,1.86,1.37,4.61,1.81,6.73,2.15l1.52.25c3.42.55,6.03,1.13,6.03,3.2,0,3.6-3.68,4.88-6.83,4.88Z"/>
      <polygon class="cls-1" points="24.49 177.8 26.39 176.39 41.41 188.24 43.28 185.74 28.99 174.49 32.37 172 35.76 169.49 43.29 163.92 41.42 161.43 30.82 169.24 27.25 171.87 24.49 173.9 24.49 171.86 24.49 169.15 24.49 162.26 21.38 162.26 21.38 169.23 21.38 171.94 21.38 187.38 24.49 187.38 24.49 177.8"/>
    </g>
    <g id="Magi">
      <polygon class="cls-1" points="149.5 175.29 149.5 178.07 149.5 187.41 152.6 187.41 152.6 177.35 152.6 174.56 152.6 162.39 149.5 162.39 149.5 175.29"/>
      <path class="cls-1" d="M143.61,162.04c-10.71,0-15.59,6.62-15.59,12.77,0,1.3.24,2.63.69,3.91.32.9.75,1.78,1.3,2.61,2.34,3.53,6.78,6.21,13.6,6.21.92,0,1.86-.04,2.85-.13l.82-.08v-11.52h-3.1v8.62c-.18,0-.37,0-.57,0-4.55,0-7.78-1.41-9.81-3.42-.78-.77-1.39-1.63-1.83-2.54-.56-1.18-.85-2.43-.85-3.66,0-4.66,3.91-9.67,12.49-9.67.7,0,1.77.03,2.68.12l.99.1v-3.13l-.82-.07c-.98-.09-1.92-.13-2.85-.13Z"/>
      <path class="cls-1" d="M125.81,178.99l-7.2-19.18-7.16,19.05-.99,2.64-1.95,5.2,2.81,1.35,1.99-5.37h10.54l2.08,5.36,2.79-1.34-1.89-5.03-1.01-2.68ZM114.45,179.59l.22-.58,3.93-10.44,3.86,10.51.19.51h-8.19Z"/>
      <polygon class="cls-1" points="95.5 179.55 94.59 181.26 93.48 179.18 91.84 176.11 82.51 158.64 82.51 173.79 82.51 176.6 82.51 187.41 85.62 187.41 85.62 177.45 85.62 174.67 85.62 171.02 87.83 175.18 89.52 178.35 94.59 187.87 98.72 180.12 100.07 177.58 103.56 171.02 103.56 178.03 103.56 180.75 103.56 187.41 106.67 187.41 106.67 181.13 106.67 178.41 106.67 158.64 96.84 177.04 95.5 179.55"/>
    </g>
  </g>
</svg>